<?xml version="1.0" encoding="UTF-8" standalone="no"?>
<svg width="498px" height="498px" viewBox="0 0 498 498" version="1.1" xmlns="http://www.w3.org/2000/svg" xmlns:xlink="http://www.w3.org/1999/xlink">
    <!-- Generator: Sketch 3.6.1 (26313) - http://www.bohemiancoding.com/sketch -->
    <title>Duolingo_logo_with_owl</title>
    <desc>Created with Sketch.</desc>
    <defs>
        <filter x="-50%" y="-50%" width="200%" height="200%" filterUnits="objectBoundingBox" id="filter-1">
            <feOffset dx="0" dy="2" in="SourceAlpha" result="shadowOffsetOuter1"></feOffset>
            <feGaussianBlur stdDeviation="2" in="shadowOffsetOuter1" result="shadowBlurOuter1"></feGaussianBlur>
            <feColorMatrix values="0 0 0 0 0   0 0 0 0 0   0 0 0 0 0  0 0 0 0.0653475996 0" in="shadowBlurOuter1" type="matrix" result="shadowMatrixOuter1"></feColorMatrix>
            <feMerge>
                <feMergeNode in="shadowMatrixOuter1"></feMergeNode>
                <feMergeNode in="SourceGraphic"></feMergeNode>
            </feMerge>
        </filter>
    </defs>
    <g id="Page-1" stroke="none" stroke-width="1" fill="none" fill-rule="evenodd">
        <g id="Duolingo_logo_with_owl">
            <circle id="Oval" fill="#0C467E" cx="249" cy="249" r="249"></circle>
            <g id="Group" filter="url(#filter-1)" transform="translate(87.150000, 85.075000)">
                <path d="M110.149194,0 C140.14957,0 147.355965,39.9390276 206.474046,39.9390276 C243.827929,39.9390276 245.8875,24.4642023 263.099625,24.4642023 C270.16101,24.4642023 274.112022,38.0248759 274.112022,47.0142529 C274.112022,82.5331011 265.012083,122.325209 270.896571,122.325209 C278.6725,122.325209 310.154506,101.987347 318.245676,101.987347 C326.042622,101.987347 325.748397,108.029938 325.748397,111.419582 C325.748397,114.809225 328.102192,173.759641 248.535519,220.190414 C245.004827,222.247287 228.234038,295.937931 168.678825,295.937931 C128.973248,295.937931 98.6786468,274.424713 87.2081,222.834966 C84.8543051,212.23577 0,178.624777 0,104.787214 C-2.9865874e-14,88.575692 4.1176699,79.7332345 10.2942798,79.7332345 C25.8833372,79.7332345 59.412935,106.113687 73.8257254,106.113687 C86.3260574,106.113687 84.2664869,78.8475195 84.2664869,70.5948391 C84.5607113,62.1931402 83.8251504,1.49132303e-14 110.149824,1.49132303e-14 L110.149194,0 Z" id="Shape" fill="#78C800"></path>
                <path d="M239.771837,54.2091126 C238.910179,53.3296943 243.575737,51.2749195 243.575737,50.3955011 C243.575737,49.9547425 242.861192,50.1016621 241.978519,50.1016621 C236.26216,50.1016621 225.144683,58.3165632 223.673561,58.3165632 C222.959016,58.3165632 221.929231,58.4634828 221.929231,57.4371448 C221.929231,55.088531 229.831256,53.0358552 224.409122,53.0358552 C219.008003,53.0358552 210.811753,60.0774989 202.464188,60.0774989 C185.050309,60.0774989 171.15031,46.4349701 171.15031,49.807823 C171.15031,50.9810805 173.197271,52.8889356 174.514975,55.3823701 C174.514975,55.3823701 175.246333,59.0490621 173.783618,57.5819655 C157.832454,41.5929218 141.883392,37.7793103 141.883392,37.7793103 C141.883392,37.7793103 140.7128,37.7793103 140.7128,38.3669885 C140.7128,40.1258253 144.224578,42.6192598 144.224578,43.3538575 C144.224578,44.0863563 143.785343,44.5271149 143.053985,44.5271149 C139.687218,44.5271149 137.201022,38.0731494 123.591044,38.0731494 C102.95751,38.0731494 97.3987708,70.4919954 97.3987708,97.1893747 C97.3987708,134.891028 121.689093,146.91954 141.73628,146.91954 C157.687444,146.91954 174.662088,137.531382 181.830654,123.741933 L203.050535,125.355949 C349.324175,1.70530257e-13 213.438756,145.011685 232.016923,145.011685 C249.586321,145.011685 264.801923,133.86469 264.801923,95.4305379 C264.360587,54.9416115 253.831558,53.1827747 248.409423,53.1827747 C243.008304,53.1827747 241.684295,55.9700483 239.771837,54.2091126 L239.771837,54.2091126 Z" id="Shape" fill="#8EE000"></path>
                <path d="M138.705769,134.326437 C153.795276,134.326437 166.026603,119.29237 166.026603,100.744828 C166.026603,82.1972851 153.795276,67.1632184 138.705769,67.1632184 C123.616263,67.1632184 111.384936,82.1972851 111.384936,100.744828 C111.384936,119.29237 123.616263,134.326437 138.705769,134.326437 L138.705769,134.326437 Z M254.230862,103.584572 C253.390221,119.756216 242.840176,132.662048 230.734946,132.217092 C218.629715,131.772136 209.359546,118.272329 210.223304,102.102784 C211.063946,85.9311402 221.61399,73.025308 233.719221,73.4702644 C245.971564,73.7683011 255.092519,87.268108 254.230862,103.584572 L254.230862,103.584572 Z" id="Shape" fill="#FFFFFF"></path>
                <path d="M138.705769,119.634483 C146.830565,119.634483 153.416987,111.178214 153.416987,100.744828 C153.416987,90.3114414 146.830565,81.8551724 138.705769,81.8551724 C130.580974,81.8551724 123.994551,90.3114414 123.994551,100.744828 C123.994551,111.178214 130.580974,119.634483 138.705769,119.634483 L138.705769,119.634483 Z M243.743865,103.492223 C243.029321,112.712474 236.850609,119.91363 229.957353,119.626087 C223.085112,119.338545 217.91517,111.558106 218.629715,102.195133 C219.34426,92.9748828 225.522971,85.7737264 232.416228,86.061269 C239.288468,86.3488115 244.311298,94.1292506 243.743865,103.492223 L243.743865,103.492223 Z" id="Shape" fill="#3F3F3F"></path>
                <path d="M174.582227,135.545869 C174.582227,151.635657 172.848404,171.677582 182.026103,171.660791 C193.362147,171.641901 191.34671,154.292802 191.2017,154.145883 C191.2017,153.998963 174.582227,135.545869 174.582227,135.545869 L174.582227,135.545869 Z" id="Shape" fill="#71B200"></path>
                <path d="M127.146955,94.4482759 C131.209353,94.4482759 134.502564,91.159377 134.502564,87.1022989 C134.502564,83.0452207 131.209353,79.7563218 127.146955,79.7563218 C123.084557,79.7563218 119.791346,83.0452207 119.791346,87.1022989 C119.791346,91.159377 123.084557,94.4482759 127.146955,94.4482759 L127.146955,94.4482759 Z M229.074679,93.167977 C229.221792,97.185177 226.552756,100.585315 223.001048,100.738531 C219.575436,100.893846 216.612176,97.649023 216.465064,93.6297241 C216.317952,89.6125241 218.986987,86.2123862 222.538696,86.0591701 C225.964308,85.9038552 228.927567,89.1486782 229.074679,93.167977 L229.074679,93.167977 Z" id="Shape" fill="#FFFFFF"></path>
                <path d="M313.138782,159.516841 C297.376763,182.423697 264.360587,200.486405 258.917436,200.486405 C252.738724,200.486405 257.004978,194.026143 252.591612,194.026143 C248.598567,194.026143 247.863006,262.608184 177.291192,262.608184 C98.0208452,262.608184 99.7882929,180.9566 92.2750638,180.9566 C86.6763946,180.9566 90.3584022,192.850786 84.3183965,192.850786 C64.279616,192.850786 10.9430446,152.466802 2.10160256,123.832184 C14.4783604,184.774409 85.4973955,213.411126 87.7061798,223.107816 C99.3469564,274.487678 129.551188,295.937931 169.334525,295.937931 C228.864519,295.937931 245.803436,222.520138 249.334128,220.463264 C282.350304,201.367922 301.790128,179.193566 313.138782,159.516841 L313.138782,159.516841 Z" id="Shape" fill="#71B200"></path>
                <path d="M174.458232,131.381749 C174.458232,140.805589 173.142629,159.825372 184.606871,159.825372 C196.655358,159.825372 200.936323,144.711549 200.936323,135.275117 C200.936323,125.838685 174.458232,131.381749 174.458232,131.381749 L174.458232,131.381749 Z" id="Shape" fill="#F49000"></path>
                <path d="M212.261859,139.500103 C212.261859,150.40783 203.035824,161.611494 199.959078,161.611494 C196.884433,161.611494 174.433013,141.563274 174.433013,133.014655 C174.433013,124.463938 182.889862,117.535632 194.885809,117.535632 C204.727614,117.535632 212.261859,128.592377 212.261859,139.500103 L212.261859,139.500103 Z" id="Shape" fill="#FFC200"></path>
                <path d="M193.534479,121.756421 C190.054225,121.517152 187.147708,123.194133 187.04473,125.498671 C186.941751,127.805308 189.680139,129.868478 193.160393,130.105648 C196.640647,130.344917 199.547163,128.667936 199.650142,126.363398 C199.753121,124.056761 197.014732,121.993591 193.534479,121.756421 L193.534479,121.756421 Z" id="Shape" fill="#FFF3B8"></path>
                <path d="M157.687444,304.417287 C167.676361,303.808621 174.916381,306.054391 175.349312,315.310322 C175.784343,324.566253 163.622369,326.958943 157.107401,327.399701 C150.592433,327.69354 143.209504,324.713172 142.919482,317.996851 C142.629461,311.427448 148.566488,305.004966 157.687444,304.417287 L157.687444,304.417287 Z M219.218163,285.464667 C228.780455,285.00292 228.927567,295.602115 229.053663,296.504621 C229.053663,297.407126 230.083449,307.691494 213.291644,308.594 C202.712177,309.181678 203.002198,304.270368 202.857188,301.877678 C202.857188,299.338069 207.056189,286.199264 219.218163,285.464667 L219.218163,285.464667 Z" id="Shape" fill="#D98500"></path>
            </g>
        </g>
    </g>
</svg>