<?xml version="1.0" encoding="UTF-8"?>
<svg width="478px" height="478px" viewBox="0 0 478 478" version="1.1" xmlns="http://www.w3.org/2000/svg" xmlns:xlink="http://www.w3.org/1999/xlink">
    <!-- Generator: Sketch 52.4 (67378) - http://www.bohemiancoding.com/sketch -->
    <title>instagram-link</title>
    <desc>Created with Sketch.</desc>
    <defs>
        <linearGradient x1="49.9999348%" y1="106.318819%" x2="49.9999348%" y2="-8.26540674%" id="linearGradient-1">
            <stop stop-color="#FFD879" offset="9.694%"></stop>
            <stop stop-color="#FCCB76" offset="15.387%"></stop>
            <stop stop-color="#F5AA6C" offset="25.828%"></stop>
            <stop stop-color="#E9755E" offset="39.756%"></stop>
            <stop stop-color="#E45F58" offset="44.898%"></stop>
            <stop stop-color="#D22A9C" offset="67.857%"></stop>
            <stop stop-color="#6968DF" offset="100%"></stop>
        </linearGradient>
    </defs>
    <g id="Page-1" stroke="none" stroke-width="1" fill="none" fill-rule="evenodd">
        <g id="instagram-link" transform="translate(-10.000000, -10.000000)">
            <circle id="Oval" fill="url(#linearGradient-1)" cx="249.000311" cy="249" r="238.787421"></circle>
            <path d="M248.997666,306.820912 C217.113216,306.820912 191.178309,280.878225 191.178309,248.993775 C191.178309,217.109325 217.113216,191.1822 248.997666,191.1822 C280.883672,191.1822 306.826359,217.109325 306.826359,248.993775 C306.826359,280.878225 280.883672,306.820912 248.997666,306.820912 Z M248.997666,206.7447 C225.700603,206.7447 206.740809,225.695156 206.740809,248.993775 C206.740809,272.292394 225.700603,291.258413 248.997666,291.258413 C272.304066,291.258413 291.263859,272.292394 291.263859,248.993775 C291.263859,225.695156 272.304066,206.7447 248.997666,206.7447 Z" id="Shape" fill="#FFFFFF" fill-rule="nonzero"></path>
            <circle id="Oval" fill="#FFFFFF" cx="315.107166" cy="185.052131" r="7.19143125"></circle>
            <path d="M298.763428,362.050669 L199.233459,362.050669 C164.331441,362.050669 135.942328,333.66 135.942328,298.765763 L135.942328,199.235794 C135.942328,164.32755 164.331441,135.938438 199.233459,135.938438 L298.763428,135.938438 C333.665447,135.938438 362.054559,164.32755 362.054559,199.235794 L362.054559,298.765763 C362.054559,333.66 333.665447,362.050669 298.763428,362.050669 Z M199.233459,151.500937 C172.918828,151.500937 151.504828,172.913381 151.504828,199.235794 L151.504828,298.765763 C151.504828,325.074169 172.918828,346.488169 199.233459,346.488169 L298.763428,346.488169 C325.078059,346.488169 346.492059,325.074169 346.492059,298.765763 L346.492059,199.235794 C346.492059,172.913381 325.078059,151.500938 298.763428,151.500938 L199.233459,151.500938 Z" id="Shape" fill="#FFFFFF" fill-rule="nonzero"></path>
        </g>
    </g>
</svg>