<?xml version="1.0" encoding="utf-8"?>
<!-- Generator: Adobe Illustrator 19.2.1, SVG Export Plug-In . SVG Version: 6.00 Build 0)  -->
<svg version="1.1" id="layer" xmlns="http://www.w3.org/2000/svg" xmlns:xlink="http://www.w3.org/1999/xlink" x="0px" y="0px"
	 viewBox="0 0 652 652" style="enable-background:new 0 0 652 652;" xml:space="preserve">
<style type="text/css">
	.st0{fill:#362D59;}
</style>
<path class="st0" d="M393.6,340.4L349.3,283h-11v77.1h11.4v-59l46.4,59h9.8V283h-11.7v57.5H393.6z M281.6,325.9h40v-10.1h-40v-23.3
	h45.1v-10h-56.5v77.3H327v-10.1h-45.4V325.9z M234.9,316.3c-15.5-3.9-19.8-6.8-19.8-13.9s5.9-11,14.3-11c7.6,0.4,14.9,3,21,7.6
	l5.9-8.4c-7.6-6.1-17.2-9.4-27-9.3c-12.6-1.7-24.1,7.1-25.8,19.7c0,0.2-0.1,0.4-0.1,0.6v1.7c0,12.7,9.2,18.6,25.7,22.8
	c14.3,3.4,18.5,6.3,18.5,13.5s-5.9,11.4-15.2,11.4c-9.2,0-18.1-3.5-24.8-9.8l-6.7,8c8.7,7.7,20,11.7,31.6,11.4
	c16.4,0,27-9.3,27-22.8c-0.4-11.4-7.6-17.7-24.9-21.5H234.9z M608.8,283l-23.3,36.3L562.2,283h-13.1l30.3,46.4v30.5h11.4v-30.5
	l30.4-46.4H608.8z M413.7,293.1H439v66.8h11.4v-66.8h25.5v-10.5h-62.2V293.1z M529.2,329.8c11.1-2.1,19-12,18.5-23.3
	c0-14.7-11-24-28.3-24h-34.5v77.4h11.4v-28h19.4l19.4,27.8h13.5l-21.1-29.5L529.2,329.8z M496.5,322.2v-29.1h21.5
	c11.4,0,17.7,5.1,17.7,14.3s-6.7,14.8-17.7,14.8H496.5z"/>
<path class="st0" d="M108.2,261.9c-3.8-6.6-12.2-8.9-18.8-5.1c0,0-0.1,0.1-0.1,0.1c-2.1,1.3-3.8,3-5.1,5.1l-19.4,33.7l5.1,3
	c28.1,16.1,46,45.4,47.6,77.7h-13.9c-1.9-27.3-17.2-51.8-40.9-65.5l-5.1-3l-18.6,31.1l5.1,3c12.2,7.2,20.5,19.6,22.3,33.7H35.4
	c-1.2,0.1-2.3-0.8-2.5-2c-0.1-0.5,0.1-0.9,0.4-1.3l8.8-15.2c-3-2.6-6.4-4.6-10.1-5.9l-8.9,15.2c-3.9,6.6-1.6,15.1,5,19
	c0,0,0,0,0.1,0c2.1,1.2,4.4,1.8,6.8,1.7h43.4v-5.9c-0.1-18.3-8.9-35.5-23.6-46.4l6.7-11.7c19.2,13.2,30.7,35,30.8,58.3v5.6h37.1
	v-5.9c-0.2-36.3-18.6-70.2-48.9-90.2l13.9-24c0.8-1.1,2.2-1.5,3.4-0.9c0.4,0,0.4,0.4,0.9,0.9l60.7,104.9c0.5,1.1,0.1,2.3-0.9,3
	c-0.4,0-0.9,0.4-1.2,0.4h-14.8v11.4h14.3c7.6-0.1,13.8-6.3,13.9-13.9c0.1-2.4-0.5-4.7-1.7-6.7L108.2,261.9z"/>
</svg>
