<?xml version="1.0" encoding="UTF-8"?>
<!DOCTYPE svg PUBLIC "-//W3C//DTD SVG 1.1//EN" "http://www.w3.org/Graphics/SVG/1.1/DTD/svg11.dtd">
<!-- Creator: CorelDRAW X7 -->
<svg xmlns="http://www.w3.org/2000/svg" xml:space="preserve" width="110.48mm" height="49.6378mm" version="1.1" style="shape-rendering:geometricPrecision; text-rendering:geometricPrecision; image-rendering:optimizeQuality; fill-rule:evenodd; clip-rule:evenodd"
viewBox="0 0 11048 4964"
 xmlns:xlink="http://www.w3.org/1999/xlink">
 <defs>
  <style type="text/css">
   <![CDATA[
    .fil0 {fill:#2BA851;fill-rule:nonzero}
   ]]>
  </style>
 </defs>
 <g id="Warstwa_x0020_1">
  <metadata id="CorelCorpID_0Corel-Layer"/>
  <path class="fil0" d="M6600 4752c11,-12 25,-13 37,-18 182,-74 287,-213 336,-399 29,-108 41,-218 41,-329 1,-845 1,-1691 2,-2536 0,-28 -8,-35 -35,-35 -254,1 -508,1 -761,0 -28,0 -35,6 -35,34 1,811 1,1622 0,2433 0,59 -8,116 -50,162 -38,41 -89,54 -143,61 -67,10 -134,6 -201,5 -30,-1 -34,9 -34,35 1,197 0,394 1,590 1,24 -5,30 -29,31 -244,8 -488,19 -732,28 -138,5 -277,10 -415,15 -268,10 -537,20 -805,31 -208,8 -417,16 -625,24 -268,10 -537,20 -805,31 -209,8 -417,16 -625,24 -221,9 -441,22 -662,25 -204,3 -422,-104 -461,-385 -35,-252 -72,-505 -108,-758 -37,-265 -74,-531 -112,-797 -42,-293 -84,-586 -126,-879 -44,-310 -87,-620 -131,-930 -39,-278 -81,-555 -118,-833 -14,-113 5,-220 91,-305 56,-55 127,-76 203,-77 130,-1 260,10 390,16 245,11 490,23 735,34 258,12 516,24 774,37 216,10 431,20 646,30 216,10 431,21 646,31 259,12 519,24 778,36 258,13 516,25 774,37 258,12 516,25 774,37 215,10 431,20 646,30 215,11 431,21 646,31 258,12 516,24 774,36 259,13 518,25 778,37 258,12 516,25 774,37 215,10 430,20 646,30 200,10 400,16 600,30 138,10 257,62 329,190 46,84 44,176 34,268 -16,156 -31,312 -47,468 -17,175 -35,350 -52,525 -15,153 -30,306 -45,459 -15,154 -31,309 -47,464 -15,153 -30,306 -45,459 -17,177 -35,354 -53,531 -11,109 -20,219 -32,328 -20,180 -138,412 -425,428 -156,8 -313,12 -470,18 -268,11 -536,21 -805,31 -208,8 -416,16 -625,24 -287,12 -575,24 -862,35 -189,7 -379,13 -568,20 -121,5 -243,10 -366,15zm-2196 -2314c-160,0 -319,-1 -479,1 -29,0 -31,-8 -26,-32 32,-152 93,-287 219,-383 229,-175 615,-141 759,227 20,50 31,103 38,156 3,23 -2,32 -28,31 -161,-1 -322,0 -483,0zm4900 270c-2,150 -26,304 -100,446 -158,305 -519,291 -684,152 -94,-79 -149,-182 -179,-298 -62,-235 -59,-469 27,-698 48,-128 126,-232 258,-282 193,-74 460,-39 591,242 64,136 85,281 87,438zm-4483 194c296,0 593,-1 889,1 31,0 37,-10 38,-37 5,-239 -21,-473 -107,-698 -120,-319 -326,-561 -644,-697 -293,-125 -599,-145 -906,-70 -461,114 -786,392 -951,842 -96,262 -98,533 -38,803 99,448 365,752 800,903 224,78 456,96 692,79 206,-16 403,-66 586,-165 259,-141 431,-353 515,-637 7,-24 5,-31 -23,-31 -240,1 -479,1 -718,0 -21,0 -31,6 -39,24 -39,81 -100,141 -178,184 -127,69 -262,83 -403,59 -145,-25 -262,-96 -342,-222 -60,-93 -85,-197 -97,-305 -2,-27 3,-34 31,-34 298,1 597,1 895,1zm3979 -1541c-95,0 -189,7 -282,26 -357,72 -642,253 -837,562 -212,338 -258,706 -170,1091 85,373 296,657 635,838 295,157 612,192 936,129 431,-84 747,-325 930,-727 126,-276 150,-566 94,-863 -54,-285 -185,-530 -403,-725 -256,-230 -563,-329 -903,-331zm-7324 1270c2,168 -4,377 2,586 4,107 14,213 40,317 44,180 143,315 322,382 130,48 266,61 404,67 180,8 360,-11 539,-21 30,-1 34,-11 34,-37 -1,-178 0,-356 0,-534 0,-45 0,-43 -44,-40 -88,5 -174,14 -262,5 -134,-15 -206,-91 -206,-226 0,-377 0,-754 0,-1131 0,-23 6,-28 28,-28 150,1 300,0 450,1 25,0 35,-4 34,-33 -1,-158 -1,-315 0,-473 0,-24 -5,-31 -30,-31 -148,1 -297,0 -446,1 -28,1 -37,-5 -37,-35 2,-233 1,-467 2,-700 0,-24 -7,-30 -30,-30 -256,1 -512,1 -767,0 -27,0 -34,6 -34,33 1,233 0,467 1,700 0,24 -4,33 -31,32 -120,-1 -240,0 -360,-1 -22,0 -27,6 -27,27 1,161 1,322 0,483 0,21 5,27 27,27 119,-1 238,0 357,-1 26,0 35,5 35,33 -2,195 -1,391 -1,627zm5123 -1509c128,0 256,-1 385,1 26,0 32,-8 32,-33 -1,-191 -1,-383 -1,-574 1,-22 -4,-30 -28,-30 -258,1 -517,1 -775,0 -23,0 -27,7 -27,28 1,193 1,387 0,580 0,23 7,29 29,29 128,-1 257,-1 385,-1z"/>
 </g>
</svg>
