<?xml version="1.0"?>
<svg xmlns="http://www.w3.org/2000/svg" viewBox="0 0 50 50">
    <path style="line-height:normal;text-indent:0;text-align:start;text-decoration-line:none;text-decoration-style:solid;text-decoration-color:#000;text-transform:none;block-progression:tb;isolation:auto;mix-blend-mode:normal" d="M 25 2 C 14.393 2 5.4448281 9.219 2.7988281 19 L 4.8847656 19 C 5.6328266 16.497895 6.8461316 14.19903 8.40625 12.181641 C 10.11406 13.14443 12.090106 13.948645 14.275391 14.568359 C 13.911382 15.968817 13.609625 17.444852 13.398438 19 L 15.4375 19 C 15.640372 17.623905 15.917299 16.310659 16.246094 15.0625 C 18.65626 15.593995 21.26261 15.908369 24 15.970703 L 24 19 L 26 19 L 26 15.970703 C 28.73717 15.908394 31.344238 15.595715 33.753906 15.064453 C 34.082484 16.312076 34.359726 17.624574 34.5625 19 L 36.601562 19 C 36.390375 17.444852 36.088618 15.968817 35.724609 14.568359 C 37.910217 13.948621 39.88593 13.144757 41.59375 12.181641 C 43.153868 14.19903 44.367173 16.497895 45.115234 19 L 47.201172 19 C 44.555172 9.219 35.607 2 25 2 z M 24 4.1210938 L 24 13.970703 C 21.457648 13.908488 19.039992 13.615506 16.814453 13.132812 C 18.455473 8.2130227 21.061735 4.7680112 24 4.1210938 z M 26 4.1210938 C 28.938265 4.7680112 31.544527 8.2130227 33.185547 13.132812 C 30.960235 13.615544 28.542479 13.908471 26 13.970703 L 26 4.1210938 z M 19.132812 4.8535156 C 17.372476 6.7092307 15.898463 9.3908698 14.835938 12.640625 C 12.923892 12.100179 11.200803 11.419694 9.7226562 10.626953 C 12.255659 7.9327561 15.491247 5.9172327 19.132812 4.8535156 z M 30.867188 4.8535156 C 34.508753 5.9172327 37.744341 7.9327561 40.277344 10.626953 C 38.799465 11.419826 37.07607 12.100095 35.164062 12.640625 C 34.101537 9.3908698 32.627524 6.7092307 30.867188 4.8535156 z M 3 21 L 5.5390625 29 L 7.8691406 29 L 9.9824219 23.019531 L 12.101562 29 L 14.380859 29 L 16.964844 21 L 14.800781 21 L 13.167969 26.587891 L 11.302734 21 L 8.7480469 21 L 6.8027344 26.494141 L 5.1992188 21 L 3 21 z M 18.017578 21 L 20.558594 29 L 22.888672 29 L 25 23.019531 L 27.119141 29 L 29.398438 29 L 31.982422 21 L 29.818359 21 L 28.185547 26.587891 L 26.320312 21 L 23.765625 21 L 21.820312 26.494141 L 20.216797 21 L 18.017578 21 z M 32.982422 21 L 35.533203 29 L 37.871094 29 L 39.992188 23.019531 L 42.119141 29 L 44.40625 29 L 47 21 L 44.828125 21 L 43.189453 26.587891 L 41.318359 21 L 38.753906 21 L 36.800781 26.494141 L 35.189453 21 L 32.982422 21 z M 2.7988281 31 C 5.4448281 40.781 14.393 48 25 48 C 35.607 48 44.555172 40.781 47.201172 31 L 45.115234 31 C 44.367173 33.502105 43.153868 35.80097 41.59375 37.818359 C 39.88594 36.85557 37.909894 36.051355 35.724609 35.431641 C 36.088656 34.031183 36.390375 32.555148 36.601562 31 L 34.5625 31 C 34.359467 32.376095 34.082771 33.689341 33.753906 34.9375 C 31.34374 34.406005 28.73739 34.091631 26 34.029297 L 26 31 L 24 31 L 24 34.029297 C 21.26283 34.091606 18.655762 34.404285 16.246094 34.935547 C 15.917516 33.687924 15.640274 32.375426 15.4375 31 L 13.398438 31 C 13.60977 32.555058 13.911304 34.031254 14.275391 35.431641 C 12.089783 36.051379 10.11407 36.855243 8.40625 37.818359 C 6.8461316 35.80097 5.6328266 33.502105 4.8847656 31 L 2.7988281 31 z M 24 36.029297 L 24 45.878906 C 21.061735 45.231989 18.455473 41.786977 16.814453 36.867188 C 19.039765 36.384456 21.457521 36.091529 24 36.029297 z M 26 36.029297 C 28.542352 36.091512 30.960008 36.384494 33.185547 36.867188 C 31.544393 41.786977 28.938173 45.231989 26 45.878906 L 26 36.029297 z M 14.837891 37.359375 C 15.900624 40.60913 17.372569 43.290769 19.132812 45.146484 C 15.491247 44.082767 12.255659 42.067244 9.7226562 39.373047 C 11.201001 38.579924 12.925162 37.899985 14.837891 37.359375 z M 35.164062 37.359375 C 37.076108 37.899821 38.799197 38.580306 40.277344 39.373047 C 37.744341 42.067244 34.508753 44.082767 30.867188 45.146484 C 32.627628 43.290695 34.101411 40.609306 35.164062 37.359375 z" font-weight="400" font-family="sans-serif" white-space="normal" overflow="visible"/>
</svg>
