<?xml version="1.0" encoding="UTF-8" standalone="no"?>
<svg width="498px" height="498px" viewBox="0 0 498 498" version="1.1" xmlns="http://www.w3.org/2000/svg" xmlns:xlink="http://www.w3.org/1999/xlink">
    <!-- Generator: Sketch 3.6.1 (26313) - http://www.bohemiancoding.com/sketch -->
    <title>Group</title>
    <desc>Created with Sketch.</desc>
    <defs></defs>
    <g id="Page-1" stroke="none" stroke-width="1" fill="none" fill-rule="evenodd">
        <g id="Group" transform="translate(1.000000, 1.000000)">
            <g id="Shape">
                <path d="M-0.079,248 C-0.079,110.981 110.994,-0.079 248.006,-0.079 C385.01,-0.079 496.08,110.981 496.08,248 C496.08,385.011 385.011,496.079 248.007,496.079 C110.995,496.079 -0.079,385.011 -0.079,248 L-0.079,248 Z" fill="#D42428"></path>
                <path d="M423.416,72.577 C520.293,169.461 520.301,326.531 423.416,423.416 C326.539,520.292 169.459,520.292 72.574,423.416 L423.416,72.577 L423.416,72.577 Z" fill="#CC202D"></path>
                <path d="M491.091,297.697 L368.317,174.924 L223.517,191.41 L135.927,327.006 L299.593,490.67 C395.82,470.312 471.468,394.199 491.091,297.697 L491.091,297.697 Z" fill="#BA202E"></path>
            </g>
            <path d="M377.827,200.14 C377.827,179.346 360.981,162.492 340.194,162.492 L163.645,162.492 C142.866,162.492 126.02,179.346 126.02,200.14 L126.02,301.102 C126.02,321.896 142.866,338.757 163.645,338.757 L340.194,338.757 C360.981,338.757 377.827,321.896 377.827,301.102 L377.827,200.14 L377.827,200.14 Z M226.738,293.214 L226.738,198.388 L298.652,245.805 L226.738,293.214 L226.738,293.214 Z" id="YouTube__x28_alt_x29__2_" fill="#FFFFFF"></path>
        </g>
    </g>
</svg>